<?xml version="1.0" encoding="utf-8"?>
<!-- Generator: Adobe Illustrator 27.5.0, SVG Export Plug-In . SVG Version: 6.00 Build 0)  -->
<svg version="1.1" id="layer" xmlns="http://www.w3.org/2000/svg" xmlns:xlink="http://www.w3.org/1999/xlink" x="0px" y="0px"
	 viewBox="0 0 728.2 750" style="enable-background:new 0 0 728.2 750;" xml:space="preserve">
<style type="text/css">
	.st0{fill:#FF8000;}
</style>
<path class="st0" d="M632.8,225.1c-1.3-1.8-2.7-4-2.7-6.2l0,0c-6.7-76.4-17.8-127.4-17.8-127.4c-1.8-8.9-9.3-15.1-17.8-16.4
	l-61.3-7.5c-0.4,0-0.9,0-1.8,0c-7.1,0-12.9,5.8-12.9,12.9v21.3c0,0.4-0.4,0.9-0.9,0.9h-0.4l0,0c-36.4-32.9-77.7-64.8-123.4-93.3
	C385,3.6,374.8,0,363.7,0l0,0l0,0l0,0c-11.1,0-21.8,3.6-30.2,9.3C122.6,139.4,6.2,351.7,1.8,363.2C0.4,365.9,0,369,0,372.1
	c0,9.8,6.7,18.2,16,20.4l60.8,11.5c8,2.2,14.2,9.3,15.1,17.8c0.4,10.7,12,250.4,26.6,312.6c2.2,8.9,10.7,15.5,20.4,15.5h0.4
	c35.5-0.9,67.9-1.3,103-1.8l0,0l0,0h0.4c0.9,0,1.8,0,2.7,0c3.6,0,6.7-3.1,6.7-6.7l0,0c-1.3-20.9-4.4-68.8-7.1-119c0-1.3,0-2.7-0.4-4
	l0,0c-0.4-4.4-2.7-8-6.2-10.2c-18.2-11.1-30.6-30.6-32-52.8c-3.1-83.9-4.9-181.2,0-257.1c0.4-6.2,5.8-11.5,12-11.5
	c6.7,0,12.4,5.3,12.4,12c0,0.4,0,0.4,0,0.9c-3.1,50.6-3.1,110.6-2.2,169.6c0,8,6.7,14.2,14.7,14.2c8,0,14.2-6.7,14.2-14.7
	c-0.9-59.5-0.9-119.9,2.2-170.5c0.4-6.2,5.8-11.5,12-11.5c6.7,0,12.4,5.3,12.4,12c0,0.4,0,0.4,0,0.9c-3.1,50.6-3.1,110.1-2.2,168.7
	l0,0c0,8,6.7,14.2,14.7,14.2c8,0,14.2-6.7,14.2-14.7c-0.9-59.1-0.9-119.4,2.2-170.1c0.4-6.2,5.8-11.5,12-11.5
	c6.7,0,12.4,5.3,12.4,12c0,0.4,0,0.4,0,0.9c-4.4,73.7-3.1,167.4,0,249.6v0.9c0,0.4,0,0.9,0,1.3l0,0c0,0.4,0,0.4,0,0.9
	c0,22.6-11.1,42.2-28.4,54.2c-3.1,2.2-5.3,5.3-5.3,9.3c0,0-1.3,12.4,4,73.7c2.7,26.6,4.4,45.3,5.3,53.3c0.4,3.1,3.1,5.8,6.2,5.8
	c1.8,0,4,0,5.8,0l0,0c11.5,0,24,0,36.4,0h2.2h2.2c16,0,31.1,0,45.7,0l34.6,0.4l0,0c3.1,0,5.8-2.7,6.7-5.8
	c8-73.3,9.8-114.1,9.8-114.1c0-3.6-2.7-6.7-6.7-7.1l-41.7-6.7c-6.7-1.3-10.7-5.3-12-10.2c-0.9-3.1-0.4-6.7-0.4-6.7
	c16.9-243.8,97.2-326.4,97.2-326.4c2.2-2.2,4-3.6,4-3.6c2.2-1.3,4.9-2.7,7.5-2.7c5.3,0,10.2,3.6,12,8c0,0,0.4,1.8,0.9,5.8
	c7.1,76.8,3.6,207.4-0.9,309.1c-3.6,86.6-8,154.1-8,154.1l0,0c0,2.7,2.2,4.9,4.9,4.9l0,0c22.6,0.4,45.3,0.9,69.3,1.3h0.4
	c9.8,0,17.8-6.7,20.4-15.5c14.7-62.2,25.8-302,26.6-312.6c0.9-8.4,7.1-15.5,15.1-17.8l60.8-11.5c8.9-2.2,16-10.7,16-20.4
	c0-3.1-0.9-6.2-1.8-8.9C723.4,357,691.8,298.4,632.8,225.1"/>
</svg>
