<?xml version="1.0" encoding="utf-8"?>
<!-- Generator: Adobe Illustrator 27.5.0, SVG Export Plug-In . SVG Version: 6.00 Build 0)  -->
<svg version="1.1"
	 id="svg8" xmlns:inkscape="http://www.inkscape.org/namespaces/inkscape" xmlns:sodipodi="http://sodipodi.sourceforge.net/DTD/sodipodi-0.dtd" xmlns:rdf="http://www.w3.org/1999/02/22-rdf-syntax-ns#" xmlns:dc="http://purl.org/dc/elements/1.1/" xmlns:cc="http://creativecommons.org/ns#" xmlns:svg="http://www.w3.org/2000/svg"
	 xmlns="http://www.w3.org/2000/svg" xmlns:xlink="http://www.w3.org/1999/xlink" x="0px" y="0px" viewBox="0 0 500 614.7"
	 style="enable-background:new 0 0 500 614.7;" xml:space="preserve">
<style type="text/css">
	.st0{fill:#FF1A1A;}
</style>
<sodipodi:namedview  bordercolor="#666666" borderopacity="1.0" fit-margin-bottom="0" fit-margin-left="0" fit-margin-right="0" fit-margin-top="0" id="base" inkscape:current-layer="layer1" inkscape:cx="102.43582" inkscape:cy="107.30438" inkscape:document-units="mm" inkscape:pageopacity="0.0" inkscape:pageshadow="2" inkscape:window-height="1017" inkscape:window-maximized="1" inkscape:window-width="1920" inkscape:window-x="1912" inkscape:window-y="70" inkscape:zoom="1.1894531" pagecolor="#ffffff" showgrid="false">
	</sodipodi:namedview>
<g id="layer1" transform="translate(-35.465716,-124.30762)" inkscape:groupmode="layer" inkscape:label="Layer 1">
	<g id="g832" transform="matrix(1.6409947,0,0,1.6106094,35.464573,119.47579)">
		<path id="path817" inkscape:connector-curvature="0" class="st0" d="M99.9,243.8l17.6-4.1c0.4-0.1,1-0.2,1.7-0.5
			c10.1-2.7,16.2-12.9,13.9-23.1l-0.1-0.3c-0.6-2.3-1.6-4.6-3-6.5c-2-2.5-4.4-4.6-7.2-6.2c-3.3-1.9-6.7-3.4-10.2-4.7l-19.3-7
			c-10.8-4-21.6-7.9-32.6-11.8c-7.1-2.5-13.1-4.7-18.3-6.4c-1-0.3-2-0.6-3-0.9c-6.3-1.9-10.7-2.7-14.5-2.8c-2.5-0.1-5,0.4-7.3,1.3
			c-2.4,1-4.6,2.6-6.4,4.5c-0.9,1-1.7,2-2.5,3.1c-1.5,2.3-2.7,4.8-3.7,7.4c-3.6,10.6-5.4,21.7-5.3,32.8c0.1,10.1,0.3,23,5.9,31.8
			c1.3,2.3,3.1,4.2,5.3,5.7c4,2.7,7.9,3.1,12.1,3.4c6.2,0.4,12.2-1.1,18.2-2.5L99.9,243.8L99.9,243.8z M295.9,150.5
			c-4.8-10.1-11.2-19.3-19.1-27.2c-1-1-2.1-1.9-3.2-2.8c-1.1-0.8-2.2-1.5-3.3-2.2c-1.2-0.6-2.4-1.2-3.6-1.7c-2.4-1-5-1.4-7.7-1.3
			c-2.5,0.1-4.9,0.8-7.2,2c-3.3,1.7-7,4.3-11.8,8.8c-0.7,0.7-1.5,1.4-2.3,2.1c-4,3.7-8.4,8.4-13.7,13.7
			c-8.1,8.2-16.1,16.5-24.1,24.8l-14.3,14.8c-2.6,2.7-5,5.6-7.1,8.7c-1.8,2.6-3.1,5.6-3.8,8.7c-0.4,2.4-0.3,4.8,0.2,7.2l0.1,0.3
			c2.3,10.2,12.3,16.7,22.6,14.7c0.6-0.1,1.2-0.2,1.8-0.3l76-17.6c6-1.4,12.1-2.7,17.4-5.8c3.6-2.1,7-4.1,9.4-8.3
			c1.3-2.3,2-4.8,2.2-7.5C305.7,171.4,300.3,159.6,295.9,150.5L295.9,150.5z M159.9,182.4c5.5-6.9,5.5-17.2,6-25.7
			c1.7-28.2,3.4-56.3,4.8-84.5c0.5-10.7,1.7-21.2,1-32c-0.5-8.9-0.6-19.1-6.2-26.3c-9.9-12.8-31-11.8-45.4-9.8
			c-4.4,0.6-8.8,1.4-13.2,2.5c-4.4,1-8.7,2.2-13,3.6C80.3,14.8,60.9,23.1,57.6,39c-1.9,9,2.5,18.2,5.9,26.4
			c4.1,9.9,9.8,18.9,14.9,28.3c13.6,24.7,27.4,49.3,41.2,73.9c4.1,7.3,8.6,16.6,16.6,20.4c0.5,0.2,1.1,0.4,1.6,0.6
			c3.6,1.4,7.5,1.6,11.2,0.7l0.7-0.1c3.4-0.9,6.5-2.8,9-5.4C159.1,183.3,159.6,182.9,159.9,182.4L159.9,182.4z M153.4,257.8
			c-4.4-6.2-12.3-8.9-19.6-6.6c-0.8,0.3-1.6,0.6-2.4,1c-1.2,0.6-2.4,1.3-3.5,2.2c-3.1,2.4-5.9,5.3-8.3,8.5c-0.6,0.8-1.2,1.8-1.9,2.5
			l-12.2,16.8c-6.9,9.4-13.8,18.9-20.5,28.5c-4.4,6.2-8.2,11.4-11.3,16c-0.6,0.9-1.2,1.8-1.7,2.6c-3.6,5.6-5.7,9.7-6.7,13.3
			c-0.8,2.4-1,5-0.7,7.5c0.3,2.6,1.2,5.2,2.6,7.4c0.7,1.1,1.5,2.2,2.4,3.3c1.8,2.1,3.9,4,6.1,5.6c8.4,5.9,17.7,10.1,27.4,13.4
			c8.1,2.7,16.5,4.3,25,4.8c1.5,0.1,2.9,0,4.3-0.1c1.3-0.1,2.7-0.3,4-0.6c1.3-0.3,2.6-0.7,3.9-1.1c2.5-0.9,4.7-2.4,6.6-4.2
			c1.8-1.8,3.2-4,4-6.3c1.4-3.5,2.3-8,3-14.6c0-0.9,0.2-2.1,0.3-3.1c0.5-5.5,0.7-12,1-19.6c0.6-11.7,1.1-23.3,1.4-35l0.8-20.8
			c0.2-4.8,0-10.1-1.3-14.8C155.6,262,154.6,259.8,153.4,257.8L153.4,257.8z M291.3,290.3c-2.5-2.8-6.2-5.6-11.9-9
			c-0.8-0.5-1.8-1.1-2.7-1.6c-4.7-2.9-10.5-5.9-17.1-9.5c-10.3-5.6-20.5-11.1-30.9-16.6l-18.3-9.7c-0.9-0.3-1.9-1-2.8-1.4
			c-3.5-1.8-7.3-3.1-11.1-4c-1.3-0.3-2.7-0.4-4-0.4c-0.9,0-1.8,0-2.6,0.2c-7.5,1.2-13.4,7-14.7,14.5c-0.3,2.3-0.2,4.7,0.3,7
			c0.9,4.9,3.1,9.7,5.3,13.9l9.8,18.3c5.4,10.3,11,20.6,16.6,30.9c3.6,6.7,6.7,12.4,9.5,17.1c0.5,0.9,1.1,1.8,1.6,2.7
			c3.5,5.7,6.2,9.3,9,11.9c3.8,3.6,9,5.4,14.2,4.8c1.3-0.2,2.7-0.4,4-0.7c2.7-0.7,5.3-1.8,7.8-3.1c7.4-4.2,14.3-9.3,20.4-15.2
			c7.3-7.2,13.8-15,18.8-24c0.7-1.3,1.3-2.6,1.8-4c0.5-1.3,0.9-2.5,1.2-3.8c0.3-1.3,0.5-2.7,0.7-4c0.3-2.6,0-5.3-0.9-7.8
			C294.4,294.4,293.1,292.2,291.3,290.3L291.3,290.3z"/>
	</g>
</g>
</svg>
